Coordinates
version=1
nRows=14
nColumns=24
inDegrees=yes

Units are S.I. units (second, meters, Newtons, ...)
Angles are in degrees.

endheader
time	pelvis_tilt	pelvis_list	pelvis_rotation	pelvis_tx	pelvis_ty	pelvis_tz	hip_flexion_r	hip_adduction_r	hip_rotation_r	knee_angle_r	ankle_angle_r	subtalar_angle_r	mtp_angle_r	hip_flexion_l	hip_adduction_l	hip_rotation_l	knee_angle_l	ankle_angle_l	subtalar_angle_l	mtp_angle_l	lumbar_extension	lumbar_bending	lumbar_rotation
      0.54000000	      3.33965773	     -2.17335910	      3.46529727	      0.00568883	      1.00316662	      0.03248672	      5.28835654	      4.09515548	    -19.71759307	    -15.32187521	     12.60165253	      0.00000000	      0.00000000	     15.05738411	     -5.71301896	      0.62627211	    -70.25893497	      5.88055997	      0.00000000	      0.00000000	    -20.17038961	      2.51290761	     -2.11661958
      0.55000000	      3.19278305	     -1.98666829	      3.58236435	      0.00500560	      1.00387158	      0.03363868	      4.72837457	      4.06675179	    -19.93445745	    -14.80650417	     12.64447079	      0.00000000	      0.00000000	     16.33812940	     -5.42403767	      0.55581945	    -70.39492487	      7.19621133	      0.00000000	      0.00000000	    -20.01420797	      2.32713066	     -2.14920819
      0.56000000	      3.06197072	     -1.71906596	      3.66287107	      0.00436197	      1.00459270	      0.03495322	      4.09725475	      3.98913771	    -20.00394395	    -14.18369528	     12.77320453	      0.00000000	      0.00000000	     17.48860863	     -5.09100490	      0.37298339	    -70.16906754	      8.21607589	      0.00000000	      0.00000000	    -19.88438492	      2.01029397	     -2.15841757
      0.57000000	      2.94046000	     -1.46337491	      3.77405241	      0.00364588	      1.00524250	      0.03607712	      3.47017324	      3.90721130	    -20.06766209	    -13.59564246	     12.88239216	      0.00000000	      0.00000000	     18.58318031	     -4.76602376	      0.17751833	    -69.70536640	      9.18978922	      0.00000000	      0.00000000	    -19.78199467	      1.73115138	     -2.18689453
      0.58000000	      2.81245315	     -1.21792400	      3.92326398	      0.00286721	      1.00579598	      0.03716264	      2.85617535	      3.84323957	    -20.08449847	    -13.01148175	     13.01037196	      0.00000000	      0.00000000	     19.61232098	     -4.46798618	     -0.04671238	    -68.95651931	     10.03085576	      0.00000000	      0.00000000	    -19.68501826	      1.46952409	     -2.23635056
      0.59000000	      2.67602404	     -0.96971668	      4.09200823	      0.00204592	      1.00621187	      0.03807089	      2.24044987	      3.76725664	    -20.14119808	    -12.39241667	     13.10323304	      0.00000000	      0.00000000	     20.57691842	     -4.12158061	     -0.22042753	    -67.97527089	     10.96140072	      0.00000000	      0.00000000	    -19.59811527	      1.21555678	     -2.26787876
      0.60000000	      2.55578384	     -0.73962624	      4.27839194	      0.00114289	      1.00655411	      0.03894273	      1.61722384	      3.71181142	    -20.18487061	    -11.78345440	     13.20514808	      0.00000000	      0.00000000	     21.45659468	     -3.79864480	     -0.40387147	    -66.74760885	     11.75783700	      0.00000000	      0.00000000	    -19.55692912	      0.98765347	     -2.31213167
      0.61000000	      2.44489363	     -0.54118953	      4.48816431	      0.00028256	      1.00678846	      0.03974178	      0.99422552	      3.68286326	    -20.20287035	    -11.21080755	     13.33298985	      0.00000000	      0.00000000	     22.23471963	     -3.51833483	     -0.60122184	    -65.25360511	     12.38282392	      0.00000000	      0.00000000	    -19.52230789	      0.80009895	     -2.33876380
      0.62000000	      2.32948866	     -0.42497268	      4.70428998	     -0.00068717	      1.00685421	      0.04050082	      0.44937057	      3.72687322	    -20.18853656	    -10.76833501	     13.49293396	      0.00000000	      0.00000000	     22.96540261	     -3.32832546	     -0.79335458	    -63.55560251	     12.77793468	      0.00000000	      0.00000000	    -19.50414841	      0.70497663	     -2.32564260
      0.63000000	      2.27195134	     -0.19223919	      4.91448825	     -0.00156374	      1.00693332	      0.04105417	     -0.23934716	      3.65331730	    -20.25843453	    -10.17250440	     13.61060230	      0.00000000	      0.00000000	     23.49905738	     -2.98963738	     -1.03025917	    -61.61148124	     13.23196358	      0.00000000	      0.00000000	    -19.56019462	      0.50311716	     -2.32002801
      0.64000000	      2.15569710	     -0.25059762	      5.13939969	     -0.00268965	      1.00664675	      0.04179650	     -0.64549200	      3.85333933	    -20.23424362	     -9.97436951	     13.79571153	      0.00000000	      0.00000000	     24.14123814	     -2.98287285	     -1.16263986	    -59.59271094	     13.30646574	      0.00000000	      0.00000000	    -19.56428495	      0.59064801	     -2.22988998
      0.65000000	      2.06336930	      0.01914962	      5.29240107	     -0.00348976	      1.00643670	      0.04249722	     -1.30539575	      3.75488374	    -20.30466270	     -9.35041397	     14.00836126	      0.00000000	      0.00000000	     24.51056667	     -2.65234781	     -1.53310595	    -57.20754408	     13.32729954	      0.00000000	      0.00000000	    -19.59192814	      0.29004836	     -2.18218060
      0.66000000	      1.92261236	     -0.14271985	      5.49859718	     -0.00460199	      1.00579973	      0.04307031	     -1.63059059	      4.04244437	    -20.30338655	     -9.22827890	     14.22425355	      0.00000000	      0.00000000	     25.03787034	     -2.72959431	     -1.66369937	    -54.88550001	     13.24238324	      0.00000000	      0.00000000	    -19.55972874	      0.50492611	     -2.05920154
      0.67000000	      1.73127944	     -0.27688176	      5.68054528	     -0.00558618	      1.00497982	      0.04368252	     -1.94712818	      4.31306877	    -20.32638569	     -9.01552523	     14.48416349	      0.00000000	      0.00000000	     25.51460627	     -2.78972751	     -1.87982874	    -52.37658909	     13.04481625	      0.00000000	      0.00000000	    -19.45995799	      0.65961269	     -1.92671183
